# Blender 5.0.1
# www.blender.org
mtllib direction_arrow.mtl
o cone
v 0.500000 0.000000 0.500000
v 0.500000 1.000000 0.500000
v 0.633975 0.000000 1.000000
v 0.866025 0.000000 0.866025
v 1.000000 0.000000 0.633975
v 1.000000 -0.000000 0.366025
v 0.866025 -0.000000 0.133975
v 0.633975 -0.000000 0.000000
v 0.366025 -0.000000 0.000000
v 0.133975 -0.000000 0.133975
v 0.000000 -0.000000 0.366025
v 0.000000 0.000000 0.633975
v 0.133975 0.000000 0.866025
v 0.366025 0.000000 1.000000
vn -0.0000 -1.0000 -0.0000
vn 0.4472 0.4472 0.7746
vn 0.7746 0.4472 0.4472
vn 0.8944 0.4472 -0.0000
vn 0.7746 0.4472 -0.4472
vn 0.4472 0.4472 -0.7746
vn -0.0000 0.4472 -0.8944
vn -0.4472 0.4472 -0.7746
vn -0.7746 0.4472 -0.4472
vn -0.8944 0.4472 -0.0000
vn -0.7746 0.4472 0.4472
vn -0.4472 0.4472 0.7746
vn -0.0000 0.4472 0.8944
vt 0.216506 0.966506
vt 0.158494 1.000000
vt 0.125000 0.875000
vt 0.322556 0.579867
vt 0.387647 0.595694
vt 0.289062 0.859375
vt 0.250000 0.908494
vt 0.346728 0.392569
vt 0.411819 0.376742
vt 0.445312 0.656250
vt 0.250000 0.841506
vt 0.478806 0.376742
vt 0.216506 0.783494
vt 0.543897 0.392569
vt 0.158494 0.750000
vt 0.002978 0.470694
vt 0.068069 0.454867
vt 0.101562 0.734375
vt 0.091506 0.750000
vt 0.135056 0.454867
vt 0.033494 0.783494
vt 0.200147 0.470694
vt 0.000000 0.841506
vt 0.377978 0.736319
vt 0.443069 0.720492
vt 0.476562 1.000000
vt 0.000000 0.908494
vt 0.510056 0.720492
vt 0.033494 0.966506
vt 0.575147 0.736319
vt 0.091506 1.000000
vt 0.190478 0.595694
vt 0.255569 0.579867
s 1
usemtl m_c5a0ed79-033d-8935-5ea3-09d4f02d195c
f 4/1/1 3/2/1 1/3/1
f 3/4/2 4/5/2 2/6/2
f 5/7/1 4/1/1 1/3/1
f 4/8/3 5/9/3 2/10/3
f 6/11/1 5/7/1 1/3/1
f 5/9/4 6/12/4 2/10/4
f 7/13/1 6/11/1 1/3/1
f 6/12/5 7/14/5 2/10/5
f 8/15/1 7/13/1 1/3/1
f 7/16/6 8/17/6 2/18/6
f 9/19/1 8/15/1 1/3/1
f 8/17/7 9/20/7 2/18/7
f 10/21/1 9/19/1 1/3/1
f 9/20/8 10/22/8 2/18/8
f 11/23/1 10/21/1 1/3/1
f 10/24/9 11/25/9 2/26/9
f 12/27/1 11/23/1 1/3/1
f 11/25/10 12/28/10 2/26/10
f 13/29/1 12/27/1 1/3/1
f 12/28/11 13/30/11 2/26/11
f 14/31/1 13/29/1 1/3/1
f 13/32/12 14/33/12 2/6/12
f 3/2/1 14/31/1 1/3/1
f 14/33/13 3/4/13 2/6/13
